<svg width="169" height="60" viewBox="0 0 169 60" fill="none" xmlns="http://www.w3.org/2000/svg">
<rect x="23.5137" y="25.4343" width="6.998" height="12.8763" fill="#4FC2A0"/>
<path d="M53.8323 35.2294C54.2863 31.4448 53.9342 27.607 52.7991 23.9683C51.664 20.3295 49.7716 16.9722 47.2464 14.1169C44.7212 11.2617 41.6203 8.97323 38.1476 7.40194C34.6748 5.83064 30.9088 5.01211 27.0972 5.00013C23.2855 4.98816 19.5144 5.78302 16.0319 7.33246C12.5493 8.8819 9.43409 11.1508 6.891 13.9902C4.3479 16.8295 2.4345 20.1748 1.27657 23.8064C0.118643 27.438 -0.257601 31.2735 0.172573 35.0608L27.0123 32.0123L53.8323 35.2294Z" fill="#4FC2A0"/>
<path d="M58.1484 22.6211C58.1484 24.3828 58.2935 25.7256 58.5835 26.6494C58.8843 27.5732 59.3462 28.3735 59.9692 29.0503C60.4312 29.5767 61.0757 30.0493 61.9028 30.4683C62.7192 30.9302 63.7666 31.1719 65.0449 31.1934C66.3662 31.1719 67.4351 30.9302 68.2515 30.4683C68.6919 30.2749 69.0518 30.0439 69.3311 29.7754C69.6426 29.5391 69.9058 29.2974 70.1206 29.0503C70.7866 28.3735 71.2593 27.5732 71.5386 26.6494C71.8071 25.7256 71.9414 24.3828 71.9414 22.6211C71.9414 20.8594 71.8071 19.5059 71.5386 18.5605C71.2593 17.6367 70.7866 16.8579 70.1206 16.2241C69.6802 15.6655 69.0571 15.166 68.2515 14.7256C67.4351 14.3066 66.3662 14.0864 65.0449 14.0649C63.7666 14.0864 62.7192 14.3066 61.9028 14.7256C61.0757 15.166 60.4312 15.6655 59.9692 16.2241C59.3462 16.8579 58.8843 17.6367 58.5835 18.5605C58.2935 19.5059 58.1484 20.8594 58.1484 22.6211ZM68.5737 22.6533C68.5737 23.792 68.52 24.6299 68.4126 25.167C68.3052 25.7148 68.085 26.1982 67.752 26.6172C67.5049 26.9395 67.1396 27.2241 66.6562 27.4712C66.1943 27.7075 65.6572 27.8257 65.0449 27.8257C64.4756 27.8257 63.9492 27.7075 63.4658 27.4712C63.0039 27.2241 62.6279 26.9395 62.3379 26.6172C62.0479 26.1982 61.8384 25.7148 61.7095 25.167C61.5806 24.6299 61.5161 23.7812 61.5161 22.6211C61.5161 21.4502 61.5806 20.5908 61.7095 20.043C61.8384 19.5166 62.0479 19.0547 62.3379 18.6572C62.6279 18.2812 63.0039 17.9858 63.4658 17.771C63.9492 17.5454 64.4756 17.4326 65.0449 17.4326C65.6572 17.4326 66.1943 17.5454 66.6562 17.771C67.1396 17.9858 67.5049 18.2812 67.752 18.6572C68.085 19.0547 68.3052 19.5166 68.4126 20.043C68.52 20.5908 68.5737 21.4609 68.5737 22.6533ZM75.4702 37.7676H78.8379V29.2114C79.4502 29.813 80.1216 30.2856 80.8521 30.6294C81.5288 31.0054 82.2969 31.1934 83.1562 31.1934C84.1982 31.1719 85.0898 30.9624 85.8311 30.5649C86.583 30.1782 87.1899 29.6626 87.6519 29.0181C88.1138 28.4702 88.4307 27.7666 88.6025 26.9072C88.7637 26.0479 88.8442 24.6299 88.8442 22.6533C88.8442 20.623 88.7637 19.1836 88.6025 18.335C88.4307 17.4756 88.1138 16.7827 87.6519 16.2563C86.7065 14.8491 85.208 14.1187 83.1562 14.0649C81.3945 14.1187 79.9551 14.7686 78.8379 16.0146V14.2744H75.4702V37.7676ZM82.1411 27.8257C81.3892 27.8257 80.793 27.6646 80.3525 27.3423C79.8906 27.0308 79.5522 26.6226 79.3374 26.1177C79.1333 25.6128 78.999 25.0488 78.9346 24.4258C78.8701 23.835 78.8379 23.2441 78.8379 22.6533C78.8379 22.0195 78.8701 21.3911 78.9346 20.7681C78.999 20.1772 79.1333 19.6294 79.3374 19.1245C79.5522 18.6196 79.8906 18.2114 80.3525 17.8999C80.793 17.5884 81.3892 17.4326 82.1411 17.4326C82.936 17.4326 83.5645 17.5669 84.0264 17.8354C84.4883 18.1255 84.8159 18.5229 85.0093 19.0278C85.2241 19.5112 85.3691 20.0698 85.4443 20.7036C85.4658 21.3374 85.4766 21.9873 85.4766 22.6533C85.4766 23.2871 85.4658 23.9048 85.4443 24.5063C85.3691 25.1187 85.2241 25.6772 85.0093 26.1821C84.8159 26.6655 84.4883 27.063 84.0264 27.3745C83.5645 27.6753 82.936 27.8257 82.1411 27.8257ZM96.208 30.3394L95.2896 33.1431C95.1392 33.6265 94.876 33.9917 94.5 34.2388C94.124 34.4751 93.7158 34.5933 93.2754 34.5933H92.2925V37.7676H93.4043C94.4463 37.7676 95.3809 37.5366 96.208 37.0747C97.0244 36.5913 97.6636 35.7212 98.1255 34.4644L105.328 14.2744H101.751L97.8032 25.9888H97.7388L93.7749 14.2744H90.2139L96.208 30.3394ZM107.278 31H110.646V21.042C110.646 19.8711 110.962 18.9795 111.596 18.3672C112.219 17.7441 113.014 17.4326 113.981 17.4326C114.948 17.4326 115.737 17.7441 116.35 18.3672C116.973 18.9795 117.284 19.8711 117.284 21.042V31H120.652V19.8818C120.598 17.9697 120.002 16.5195 118.863 15.5312C117.714 14.5537 116.446 14.0649 115.061 14.0649C113.267 14.0649 111.816 14.7256 110.71 16.0469H110.646V14.2744H107.278V31Z" fill="#C1C2C2"/>
</svg>
